<mxfile modified="2020-11-24T14:30:55.783Z" host="app.diagrams.net" agent="5.0 (Macintosh; Intel Mac OS X 10_13_6) AppleWebKit/537.36 (KHTML, like Gecko) Chrome/83.0.4103.116 Safari/537.36" etag="dJRizVWBlYD6790vY499" version="13.5.8" type="github">
  <diagram id="Ht1M8jgEwFfnCIfOTk4-" name="Page-1">
    <mxGraphModel dx="1186" dy="614" grid="1" gridSize="10" guides="1" tooltips="1" connect="1" arrows="1" fold="1" page="1" pageScale="1" pageWidth="1169" pageHeight="827" math="0" shadow="0">
      <root>
        <mxCell id="0" />
        <mxCell id="1" parent="0" />
        <mxCell id="-QjtrjUzRDEMRZ5MF8oH-47" value="&lt;p class=&quot;MuiTypography-root jss18 jss1092 jss11  MuiTypography-body1&quot; style=&quot;box-sizing: border-box ; margin: 0px ; font-family: &amp;#34;nunito sans&amp;#34; , &amp;#34;verdana&amp;#34; , &amp;#34;helvetica&amp;#34; , sans-serif ; line-height: 1.5 ; letter-spacing: 0.15px&quot;&gt;Detailed component design for URL shortening&lt;/p&gt;&lt;div&gt;&lt;br style=&quot;font-family: &amp;#34;nunito sans&amp;#34; , sans-serif , , , &amp;#34;segoe ui&amp;#34; , &amp;#34;oxygen&amp;#34; , &amp;#34;ubuntu&amp;#34; , &amp;#34;cantarell&amp;#34; , &amp;#34;helvetica neue&amp;#34; ; font-size: 14px ; font-weight: 400 ; text-align: center ; background-color: rgb(245 , 245 , 245)&quot;&gt;&lt;/div&gt;" style="text;html=1;resizable=0;points=[];autosize=1;align=left;verticalAlign=top;spacingTop=-4;fontSize=30;fontStyle=1" parent="1" vertex="1">
          <mxGeometry x="150" width="810" height="80" as="geometry" />
        </mxCell>
        <mxCell id="SCVMTBWpLvtzJIhz15lM-1" value="" style="line;strokeWidth=2;html=1;fontSize=14;" parent="1" vertex="1">
          <mxGeometry x="70" y="52.5" width="1060" height="10" as="geometry" />
        </mxCell>
        <mxCell id="h41PzyQXofiFfJXU3RPe-1" value="Client" style="outlineConnect=0;fontColor=#232F3E;gradientColor=none;fillColor=#232F3E;strokeColor=none;dashed=0;verticalLabelPosition=bottom;verticalAlign=top;align=center;html=1;fontSize=12;fontStyle=0;aspect=fixed;pointerEvents=1;shape=mxgraph.aws4.internet_alt1;" vertex="1" parent="1">
          <mxGeometry x="90" y="240" width="130" height="80" as="geometry" />
        </mxCell>
        <mxCell id="h41PzyQXofiFfJXU3RPe-3" value="" style="outlineConnect=0;fontColor=#232F3E;gradientColor=none;fillColor=#232F3E;strokeColor=none;dashed=0;verticalLabelPosition=bottom;verticalAlign=top;align=center;html=1;fontSize=12;fontStyle=0;aspect=fixed;pointerEvents=1;shape=mxgraph.aws4.traditional_server;" vertex="1" parent="1">
          <mxGeometry x="600" y="211" width="45" height="78" as="geometry" />
        </mxCell>
        <mxCell id="h41PzyQXofiFfJXU3RPe-4" value="" style="outlineConnect=0;fontColor=#232F3E;gradientColor=none;fillColor=#232F3E;strokeColor=none;dashed=0;verticalLabelPosition=bottom;verticalAlign=top;align=center;html=1;fontSize=12;fontStyle=0;aspect=fixed;pointerEvents=1;shape=mxgraph.aws4.traditional_server;" vertex="1" parent="1">
          <mxGeometry x="630" y="270" width="45" height="78" as="geometry" />
        </mxCell>
        <mxCell id="h41PzyQXofiFfJXU3RPe-5" value="" style="outlineConnect=0;fontColor=#232F3E;gradientColor=none;fillColor=#232F3E;strokeColor=none;dashed=0;verticalLabelPosition=bottom;verticalAlign=top;align=center;html=1;fontSize=12;fontStyle=0;aspect=fixed;pointerEvents=1;shape=mxgraph.aws4.traditional_server;" vertex="1" parent="1">
          <mxGeometry x="570" y="270" width="45" height="78" as="geometry" />
        </mxCell>
        <mxCell id="h41PzyQXofiFfJXU3RPe-6" value="" style="gradientDirection=north;outlineConnect=0;fontColor=#232F3E;gradientColor=#505863;fillColor=#1E262E;strokeColor=#ffffff;dashed=0;verticalLabelPosition=bottom;verticalAlign=top;align=center;html=1;fontSize=12;fontStyle=0;aspect=fixed;shape=mxgraph.aws4.resourceIcon;resIcon=mxgraph.aws4.general;" vertex="1" parent="1">
          <mxGeometry x="340" y="242" width="48" height="48" as="geometry" />
        </mxCell>
        <mxCell id="h41PzyQXofiFfJXU3RPe-8" value="" style="gradientDirection=north;outlineConnect=0;fontColor=#232F3E;gradientColor=#505863;fillColor=#1E262E;strokeColor=#ffffff;dashed=0;verticalLabelPosition=bottom;verticalAlign=top;align=center;html=1;fontSize=12;fontStyle=0;aspect=fixed;shape=mxgraph.aws4.resourceIcon;resIcon=mxgraph.aws4.general;" vertex="1" parent="1">
          <mxGeometry x="368" y="280" width="40" height="40" as="geometry" />
        </mxCell>
        <mxCell id="h41PzyQXofiFfJXU3RPe-9" value="" style="gradientDirection=north;outlineConnect=0;fontColor=#232F3E;gradientColor=#505863;fillColor=#1E262E;strokeColor=#ffffff;dashed=0;verticalLabelPosition=bottom;verticalAlign=top;align=center;html=1;fontSize=12;fontStyle=0;aspect=fixed;shape=mxgraph.aws4.resourceIcon;resIcon=mxgraph.aws4.general;" vertex="1" parent="1">
          <mxGeometry x="330" y="290" width="38" height="38" as="geometry" />
        </mxCell>
        <mxCell id="h41PzyQXofiFfJXU3RPe-10" value="Load balancers" style="text;html=1;align=center;verticalAlign=middle;resizable=0;points=[];autosize=1;" vertex="1" parent="1">
          <mxGeometry x="320" y="343" width="100" height="20" as="geometry" />
        </mxCell>
        <mxCell id="h41PzyQXofiFfJXU3RPe-11" value="Application servers" style="text;html=1;align=center;verticalAlign=middle;resizable=0;points=[];autosize=1;" vertex="1" parent="1">
          <mxGeometry x="560" y="350" width="120" height="20" as="geometry" />
        </mxCell>
        <mxCell id="h41PzyQXofiFfJXU3RPe-15" value="Load balancers" style="text;html=1;align=center;verticalAlign=middle;resizable=0;points=[];autosize=1;" vertex="1" parent="1">
          <mxGeometry x="757" y="370" width="100" height="20" as="geometry" />
        </mxCell>
        <mxCell id="h41PzyQXofiFfJXU3RPe-16" value="" style="shape=cylinder2;whiteSpace=wrap;html=1;boundedLbl=1;backgroundOutline=1;size=15;" vertex="1" parent="1">
          <mxGeometry x="600" y="515" width="60" height="80" as="geometry" />
        </mxCell>
        <mxCell id="h41PzyQXofiFfJXU3RPe-17" value="" style="shape=cylinder2;whiteSpace=wrap;html=1;boundedLbl=1;backgroundOutline=1;size=15;" vertex="1" parent="1">
          <mxGeometry x="308" y="514" width="60" height="80" as="geometry" />
        </mxCell>
        <mxCell id="h41PzyQXofiFfJXU3RPe-18" value="" style="shape=cylinder2;whiteSpace=wrap;html=1;boundedLbl=1;backgroundOutline=1;size=15;" vertex="1" parent="1">
          <mxGeometry x="1040" y="380" width="60" height="80" as="geometry" />
        </mxCell>
        <mxCell id="h41PzyQXofiFfJXU3RPe-19" value="" style="shape=cylinder2;whiteSpace=wrap;html=1;boundedLbl=1;backgroundOutline=1;size=15;" vertex="1" parent="1">
          <mxGeometry x="1020" y="410" width="60" height="80" as="geometry" />
        </mxCell>
        <mxCell id="h41PzyQXofiFfJXU3RPe-25" value="" style="shape=ext;double=1;rounded=0;whiteSpace=wrap;html=1;" vertex="1" parent="1">
          <mxGeometry x="1039" y="560" width="90" height="20.5" as="geometry" />
        </mxCell>
        <mxCell id="h41PzyQXofiFfJXU3RPe-26" value="" style="shape=ext;double=1;rounded=0;whiteSpace=wrap;html=1;" vertex="1" parent="1">
          <mxGeometry x="1050" y="570" width="70" height="20" as="geometry" />
        </mxCell>
        <mxCell id="h41PzyQXofiFfJXU3RPe-29" value="" style="gradientDirection=north;outlineConnect=0;fontColor=#232F3E;gradientColor=#505863;fillColor=#1E262E;strokeColor=#ffffff;dashed=0;verticalLabelPosition=bottom;verticalAlign=top;align=center;html=1;fontSize=12;fontStyle=0;aspect=fixed;shape=mxgraph.aws4.resourceIcon;resIcon=mxgraph.aws4.general;" vertex="1" parent="1">
          <mxGeometry x="789" y="242" width="48" height="48" as="geometry" />
        </mxCell>
        <mxCell id="h41PzyQXofiFfJXU3RPe-30" value="" style="gradientDirection=north;outlineConnect=0;fontColor=#232F3E;gradientColor=#505863;fillColor=#1E262E;strokeColor=#ffffff;dashed=0;verticalLabelPosition=bottom;verticalAlign=top;align=center;html=1;fontSize=12;fontStyle=0;aspect=fixed;shape=mxgraph.aws4.resourceIcon;resIcon=mxgraph.aws4.general;" vertex="1" parent="1">
          <mxGeometry x="817" y="280" width="40" height="40" as="geometry" />
        </mxCell>
        <mxCell id="h41PzyQXofiFfJXU3RPe-31" value="" style="gradientDirection=north;outlineConnect=0;fontColor=#232F3E;gradientColor=#505863;fillColor=#1E262E;strokeColor=#ffffff;dashed=0;verticalLabelPosition=bottom;verticalAlign=top;align=center;html=1;fontSize=12;fontStyle=0;aspect=fixed;shape=mxgraph.aws4.resourceIcon;resIcon=mxgraph.aws4.general;" vertex="1" parent="1">
          <mxGeometry x="779" y="290" width="38" height="38" as="geometry" />
        </mxCell>
        <mxCell id="h41PzyQXofiFfJXU3RPe-32" value="" style="endArrow=classic;html=1;" edge="1" parent="1" source="h41PzyQXofiFfJXU3RPe-1">
          <mxGeometry width="50" height="50" relative="1" as="geometry">
            <mxPoint x="100" y="410" as="sourcePoint" />
            <mxPoint x="340" y="280" as="targetPoint" />
            <Array as="points">
              <mxPoint x="280" y="280" />
              <mxPoint x="320" y="280" />
            </Array>
          </mxGeometry>
        </mxCell>
        <mxCell id="h41PzyQXofiFfJXU3RPe-34" value="" style="endArrow=classic;html=1;" edge="1" parent="1">
          <mxGeometry width="50" height="50" relative="1" as="geometry">
            <mxPoint x="420" y="280" as="sourcePoint" />
            <mxPoint x="571" y="280" as="targetPoint" />
            <Array as="points">
              <mxPoint x="400" y="280" />
              <mxPoint x="420" y="280" />
              <mxPoint x="441" y="280" />
              <mxPoint x="461" y="280" />
              <mxPoint x="501" y="280" />
              <mxPoint x="541" y="280" />
            </Array>
          </mxGeometry>
        </mxCell>
        <mxCell id="h41PzyQXofiFfJXU3RPe-35" value="" style="endArrow=classic;html=1;" edge="1" parent="1">
          <mxGeometry width="50" height="50" relative="1" as="geometry">
            <mxPoint x="678" y="281" as="sourcePoint" />
            <mxPoint x="790" y="281" as="targetPoint" />
            <Array as="points" />
          </mxGeometry>
        </mxCell>
        <mxCell id="h41PzyQXofiFfJXU3RPe-36" value="" style="shape=ext;double=1;rounded=0;whiteSpace=wrap;html=1;" vertex="1" parent="1">
          <mxGeometry x="1005" y="106.5" width="90" height="20.5" as="geometry" />
        </mxCell>
        <mxCell id="h41PzyQXofiFfJXU3RPe-37" value="" style="shape=ext;double=1;rounded=0;whiteSpace=wrap;html=1;" vertex="1" parent="1">
          <mxGeometry x="1016" y="116.5" width="70" height="20" as="geometry" />
        </mxCell>
        <mxCell id="h41PzyQXofiFfJXU3RPe-38" value="" style="shape=ext;double=1;rounded=0;whiteSpace=wrap;html=1;" vertex="1" parent="1">
          <mxGeometry x="1000" y="90" width="100" height="26.5" as="geometry" />
        </mxCell>
        <mxCell id="h41PzyQXofiFfJXU3RPe-40" value="" style="shape=ext;double=1;rounded=0;whiteSpace=wrap;html=1;" vertex="1" parent="1">
          <mxGeometry x="577.5" y="423" width="90" height="20.5" as="geometry" />
        </mxCell>
        <mxCell id="h41PzyQXofiFfJXU3RPe-41" value="" style="shape=ext;double=1;rounded=0;whiteSpace=wrap;html=1;" vertex="1" parent="1">
          <mxGeometry x="588.5" y="433" width="70" height="20" as="geometry" />
        </mxCell>
        <mxCell id="h41PzyQXofiFfJXU3RPe-42" value="" style="endArrow=classic;html=1;entryX=0.171;entryY=1.025;entryDx=0;entryDy=0;entryPerimeter=0;" edge="1" parent="1" source="h41PzyQXofiFfJXU3RPe-30" target="h41PzyQXofiFfJXU3RPe-37">
          <mxGeometry width="50" height="50" relative="1" as="geometry">
            <mxPoint x="860" y="350" as="sourcePoint" />
            <mxPoint x="910" y="300" as="targetPoint" />
          </mxGeometry>
        </mxCell>
        <mxCell id="h41PzyQXofiFfJXU3RPe-43" value="" style="endArrow=classic;html=1;entryX=-0.017;entryY=0.225;entryDx=0;entryDy=0;entryPerimeter=0;" edge="1" parent="1" target="h41PzyQXofiFfJXU3RPe-19">
          <mxGeometry width="50" height="50" relative="1" as="geometry">
            <mxPoint x="860" y="290" as="sourcePoint" />
            <mxPoint x="698" y="403" as="targetPoint" />
            <Array as="points" />
          </mxGeometry>
        </mxCell>
        <mxCell id="h41PzyQXofiFfJXU3RPe-44" value="Cache Servers" style="text;html=1;align=center;verticalAlign=middle;resizable=0;points=[];autosize=1;" vertex="1" parent="1">
          <mxGeometry x="1005" y="140" width="90" height="20" as="geometry" />
        </mxCell>
        <mxCell id="h41PzyQXofiFfJXU3RPe-45" value="CleanUp Service" style="text;html=1;align=center;verticalAlign=middle;resizable=0;points=[];autosize=1;" vertex="1" parent="1">
          <mxGeometry x="1034" y="598" width="110" height="20" as="geometry" />
        </mxCell>
        <mxCell id="h41PzyQXofiFfJXU3RPe-46" value="" style="endArrow=classic;html=1;exitX=0.411;exitY=0.488;exitDx=0;exitDy=0;exitPerimeter=0;entryX=1;entryY=0.863;entryDx=0;entryDy=0;entryPerimeter=0;" edge="1" parent="1" target="h41PzyQXofiFfJXU3RPe-19">
          <mxGeometry width="50" height="50" relative="1" as="geometry">
            <mxPoint x="1078.9899999999998" y="570.0039999999999" as="sourcePoint" />
            <mxPoint x="1079" y="500" as="targetPoint" />
          </mxGeometry>
        </mxCell>
        <mxCell id="h41PzyQXofiFfJXU3RPe-47" value="" style="endArrow=classic;html=1;exitX=0;exitY=0.75;exitDx=0;exitDy=0;entryX=1.017;entryY=0.75;entryDx=0;entryDy=0;entryPerimeter=0;" edge="1" parent="1" source="h41PzyQXofiFfJXU3RPe-25" target="h41PzyQXofiFfJXU3RPe-16">
          <mxGeometry width="50" height="50" relative="1" as="geometry">
            <mxPoint x="710" y="560" as="sourcePoint" />
            <mxPoint x="760" y="510" as="targetPoint" />
          </mxGeometry>
        </mxCell>
        <mxCell id="h41PzyQXofiFfJXU3RPe-48" value="Key Generation Service" style="text;html=1;align=center;verticalAlign=middle;resizable=0;points=[];autosize=1;" vertex="1" parent="1">
          <mxGeometry x="560" y="460" width="140" height="20" as="geometry" />
        </mxCell>
        <mxCell id="h41PzyQXofiFfJXU3RPe-49" value="" style="endArrow=classic;html=1;entryX=0.542;entryY=1;entryDx=0;entryDy=0;entryPerimeter=0;" edge="1" parent="1" target="h41PzyQXofiFfJXU3RPe-11">
          <mxGeometry width="50" height="50" relative="1" as="geometry">
            <mxPoint x="625" y="423" as="sourcePoint" />
            <mxPoint x="675" y="373" as="targetPoint" />
          </mxGeometry>
        </mxCell>
        <mxCell id="h41PzyQXofiFfJXU3RPe-50" value="" style="endArrow=classic;html=1;entryX=0.417;entryY=0.063;entryDx=0;entryDy=0;entryPerimeter=0;" edge="1" parent="1" target="h41PzyQXofiFfJXU3RPe-16">
          <mxGeometry width="50" height="50" relative="1" as="geometry">
            <mxPoint x="625" y="453" as="sourcePoint" />
            <mxPoint x="675" y="403" as="targetPoint" />
          </mxGeometry>
        </mxCell>
        <mxCell id="h41PzyQXofiFfJXU3RPe-52" value="Key-DB" style="text;html=1;align=center;verticalAlign=middle;resizable=0;points=[];autosize=1;" vertex="1" parent="1">
          <mxGeometry x="600" y="610" width="60" height="20" as="geometry" />
        </mxCell>
        <mxCell id="h41PzyQXofiFfJXU3RPe-53" value="Key-DB(Standby)" style="text;html=1;align=center;verticalAlign=middle;resizable=0;points=[];autosize=1;" vertex="1" parent="1">
          <mxGeometry x="283" y="610" width="110" height="20" as="geometry" />
        </mxCell>
        <mxCell id="h41PzyQXofiFfJXU3RPe-54" value="" style="edgeStyle=orthogonalEdgeStyle;html=1;endArrow=none;elbow=vertical;startArrow=open;startFill=0;strokeColor=#545B64;rounded=0;entryX=0;entryY=0.563;entryDx=0;entryDy=0;entryPerimeter=0;" edge="1" parent="1" target="h41PzyQXofiFfJXU3RPe-16">
          <mxGeometry width="100" relative="1" as="geometry">
            <mxPoint x="370" y="560" as="sourcePoint" />
            <mxPoint x="530" y="560" as="targetPoint" />
          </mxGeometry>
        </mxCell>
      </root>
    </mxGraphModel>
  </diagram>
</mxfile>
